<svg width="28" height="28" fill="none" xmlns="http://www.w3.org/2000/svg"><path fill-rule="evenodd" clip-rule="evenodd" d="M2.936 13.88c.722-1.086 2.173-3.062 4.14-4.754 1.98-1.702 4.345-3.001 6.922-3.001s4.943 1.299 6.922 3c1.967 1.693 3.418 3.67 4.14 4.755a.21.21 0 010 .24c-.722 1.086-2.173 3.062-4.14 4.754-1.979 1.702-4.345 3.001-6.922 3.001s-4.942-1.299-6.921-3c-1.968-1.693-3.419-3.67-4.14-4.755a.208.208 0 010-.24zM13.998 3.5c-3.467 0-6.424 1.735-8.633 3.636C3.143 9.046 1.539 11.24.75 12.427a2.833 2.833 0 000 3.146c.79 1.187 2.393 3.38 4.615 5.291 2.21 1.9 5.166 3.636 8.633 3.636 3.468 0 6.424-1.735 8.634-3.636 2.221-1.91 3.826-4.104 4.614-5.291a2.833 2.833 0 000-3.146c-.788-1.187-2.393-3.38-4.614-5.291-2.21-1.9-5.166-3.636-8.634-3.636zm0 14a3.5 3.5 0 100-7 3.5 3.5 0 000 7z" fill="#24292E"/></svg>