<svg width="28" height="28" fill="none" xmlns="http://www.w3.org/2000/svg"><path fill-rule="evenodd" clip-rule="evenodd" d="M12.833 1.167a1.167 1.167 0 112.333 0V2.39A11.67 11.67 0 0125.61 12.835l.058-.002h1.166a1.167 1.167 0 010 2.334h-1.166c-.02 0-.039 0-.058-.002A11.67 11.67 0 0115.165 25.61l.001.058v1.166a1.167 1.167 0 11-2.333 0v-1.166l.001-.058A11.67 11.67 0 012.39 15.165l-.057.002H1.167a1.167 1.167 0 010-2.334h1.166c.02 0 .039 0 .057.002A11.67 11.67 0 0112.833 2.39V1.167zM23.666 14a9.667 9.667 0 11-19.333 0 9.667 9.667 0 1119.333 0zM14 17.5a3.5 3.5 0 100-7 3.5 3.5 0 000 7z" fill="#000"/></svg>