<svg width="28" height="28" fill="none" xmlns="http://www.w3.org/2000/svg"><g clip-path="url(#clip0_825_14713)"><path fill-rule="evenodd" clip-rule="evenodd" d="M20.707 6.857L17.337 0l-4.882 4.881-.549 4.1a7.215 7.215 0 00-5.65 2.099l-3.409 3.409a7.232 7.232 0 0010.228 10.227l3.409-3.409a7.215 7.215 0 002.098-5.65l4.1-.548 4.882-4.881-6.857-3.37zm-4.223 4.223c.31.31.586.641.828.989l1.271 1.271 3.025-.405 2.062-2.062-4.68-2.3-2.3-4.68-2.062 2.063-.404 3.024 1.27 1.271c.348.242.68.519.99.829zM7.88 12.704a4.937 4.937 0 016.15-.668l1.498 1.497a4.937 4.937 0 01-.668 6.15l-.853.852-6.979-6.979.852-.852zM5.324 15.26l-.853.853a4.935 4.935 0 106.98 6.979l.852-.852-6.98-6.98z" fill="#000"/></g><defs><clipPath id="clip0_825_14713"><path fill="#fff" d="M0 0h28v28H0z"/></clipPath></defs></svg>