<svg width="28" height="28" fill="none" xmlns="http://www.w3.org/2000/svg"><g clip-path="url(#clip0_825_14701)"><path fill-rule="evenodd" clip-rule="evenodd" d="M14.871 25.373c4.957 0 8.749-3.467 8.749-7.875 0-2.609-1.23-3.872-3.395-6.03-1.782-1.775-3.992-4.004-4.914-7.716a6.79 6.79 0 00-1.393 1.486c-.852 1.26-1.247 2.867-.2 4.961.829 1.657 1.172 3.996-.487 5.655-.988.988-2.678 1.683-4.512.915-.824-.345-1.505-.921-2.073-1.642a5.52 5.52 0 00-.521 2.37c0 4.428 3.786 7.876 8.746 7.876zm2.654-24.5c-.028-.483-.42-.872-.888-.748-2.99.788-8.303 5.177-5.267 11.248.603 1.205.498 2.132.005 2.625-.807.807-2.36.87-3.63-2.234-.186-.456-.699-.712-1.122-.46-1.928 1.149-3.123 3.63-3.123 6.194 0 6.146 5.246 10.5 11.371 10.5s11.374-4.375 11.374-10.5c0-3.74-1.973-5.704-4.044-7.767-2.154-2.144-4.415-4.394-4.676-8.859z" fill="#24292E"/></g><defs><clipPath id="clip0_825_14701"><path fill="#fff" d="M0 0h28v28H0z"/></clipPath></defs></svg>