<svg viewBox="0 0 28 28" xmlns="http://www.w3.org/2000/svg" xmlns:xlink="http://www.w3.org/1999/xlink"><style>:root&gt;svg{display:none}:root&gt;svg:target{display:block}</style><svg viewBox="0 0 28 28" id="execution" xmlns="http://www.w3.org/2000/svg"><path fill-rule="evenodd" clip-rule="evenodd" d="M2.936 13.88c.722-1.086 2.173-3.062 4.14-4.754 1.98-1.702 4.345-3.001 6.922-3.001s4.943 1.299 6.922 3c1.967 1.693 3.418 3.67 4.14 4.755a.21.21 0 010 .24c-.722 1.086-2.173 3.062-4.14 4.754-1.979 1.702-4.345 3.001-6.922 3.001s-4.942-1.299-6.921-3c-1.968-1.693-3.419-3.67-4.14-4.755a.208.208 0 010-.24zM13.998 3.5c-3.467 0-6.424 1.735-8.633 3.636C3.143 9.046 1.539 11.24.75 12.427a2.833 2.833 0 000 3.146c.79 1.187 2.393 3.38 4.615 5.291 2.21 1.9 5.166 3.636 8.633 3.636 3.468 0 6.424-1.735 8.634-3.636 2.221-1.91 3.826-4.104 4.614-5.291a2.833 2.833 0 000-3.146c-.788-1.187-2.393-3.38-4.614-5.291-2.21-1.9-5.166-3.636-8.634-3.636zm0 14a3.5 3.5 0 100-7 3.5 3.5 0 000 7z"/></svg><svg viewBox="0 0 28 28" id="kamikadze" xmlns="http://www.w3.org/2000/svg"><path fill-rule="evenodd" clip-rule="evenodd" d="M12.833 1.167a1.167 1.167 0 112.333 0V2.39A11.67 11.67 0 0125.61 12.835l.058-.002h1.166a1.167 1.167 0 010 2.334h-1.166c-.02 0-.039 0-.058-.002A11.67 11.67 0 0115.165 25.61l.001.058v1.166a1.167 1.167 0 11-2.333 0v-1.166l.001-.058A11.67 11.67 0 012.39 15.165l-.057.002H1.167a1.167 1.167 0 010-2.334h1.166c.02 0 .039 0 .057.002A11.67 11.67 0 0112.833 2.39V1.167zM23.666 14a9.667 9.667 0 11-19.333 0 9.667 9.667 0 1119.333 0zM14 17.5a3.5 3.5 0 100-7 3.5 3.5 0 000 7z"/></svg><svg viewBox="0 0 28 28" id="shock" xmlns="http://www.w3.org/2000/svg"><g clip-path="url(#cclip0_825_14713)"><path fill-rule="evenodd" clip-rule="evenodd" d="M20.707 6.857L17.337 0l-4.882 4.881-.549 4.1a7.215 7.215 0 00-5.65 2.099l-3.409 3.409a7.232 7.232 0 0010.228 10.227l3.409-3.409a7.215 7.215 0 002.098-5.65l4.1-.548 4.882-4.881-6.857-3.37zm-4.223 4.223c.31.31.586.641.828.989l1.271 1.271 3.025-.405 2.062-2.062-4.68-2.3-2.3-4.68-2.062 2.063-.404 3.024 1.27 1.271c.348.242.68.519.99.829zM7.88 12.704a4.937 4.937 0 016.15-.668l1.498 1.497a4.937 4.937 0 01-.668 6.15l-.853.852-6.979-6.979.852-.852zM5.324 15.26l-.853.853a4.935 4.935 0 106.98 6.979l.852-.852-6.98-6.98z"/></g><defs><clipPath id="cclip0_825_14713"><path d="M0 0h28v28H0z"/></clipPath></defs></svg><svg viewBox="0 0 28 28" id="support" xmlns="http://www.w3.org/2000/svg"><g clip-path="url(#dclip0_825_14701)"><path fill-rule="evenodd" clip-rule="evenodd" d="M14.871 25.373c4.957 0 8.749-3.467 8.749-7.875 0-2.609-1.23-3.872-3.395-6.03-1.782-1.775-3.992-4.004-4.914-7.716a6.79 6.79 0 00-1.393 1.486c-.852 1.26-1.247 2.867-.2 4.961.829 1.657 1.172 3.996-.487 5.655-.988.988-2.678 1.683-4.512.915-.824-.345-1.505-.921-2.073-1.642a5.52 5.52 0 00-.521 2.37c0 4.428 3.786 7.876 8.746 7.876zm2.654-24.5c-.028-.483-.42-.872-.888-.748-2.99.788-8.303 5.177-5.267 11.248.603 1.205.498 2.132.005 2.625-.807.807-2.36.87-3.63-2.234-.186-.456-.699-.712-1.122-.46-1.928 1.149-3.123 3.63-3.123 6.194 0 6.146 5.246 10.5 11.371 10.5s11.374-4.375 11.374-10.5c0-3.74-1.973-5.704-4.044-7.767-2.154-2.144-4.415-4.394-4.676-8.859z"/></g><defs><clipPath id="dclip0_825_14701"><path d="M0 0h28v28H0z"/></clipPath></defs></svg><svg viewBox="0 0 13 18" id="video_btn" xmlns="http://www.w3.org/2000/svg"><path fill-rule="evenodd" clip-rule="evenodd" d="M1.354.797a.911.911 0 01.567.197l9.95 7.237c.002 0 .002.001.003.002l.014.01a.911.911 0 01-.005 1.517l-9.987 7.265a.912.912 0 01-1.453-.737V1.708c0-.503.408-.911.911-.911z"/></svg></svg>